<?xml version="1.0" encoding="UTF-8" standalone="no"?>
<!DOCTYPE svg PUBLIC "-//W3C//DTD SVG 1.1//EN" "http://www.w3.org/Graphics/SVG/1.1/DTD/svg11.dtd">
<svg width="100%" height="100%" viewBox="0 0 160 180" version="1.1" xmlns="http://www.w3.org/2000/svg" xmlns:xlink="http://www.w3.org/1999/xlink" xml:space="preserve" xmlns:serif="http://www.serif.com/" style="fill-rule:evenodd;clip-rule:evenodd;stroke-miterlimit:1;">
    <g transform="matrix(1,0,0,1,-85.9216,-90.0537)">
        <g transform="matrix(3.61562,0,0,3.61562,-92.9341,-290.256)">
            <path d="M71.5,106L92.718,118L92.718,142L71.5,154L50.282,142L50.282,118L71.5,106Z" style="fill:white;"/>
            <path d="M71.784,105.498L71.216,105.498L49.999,117.498L49.706,118L49.706,142L49.999,142.502L71.216,154.502L71.784,154.502L93.001,142.502L93.294,142L93.294,118L93.001,117.498L71.784,105.498ZM71.5,106L92.718,118L92.718,142L71.5,154L50.282,142L50.282,118L71.5,106Z"/>
        </g>
        <g transform="matrix(3.61562,0,0,3.61562,-92.9341,-290.256)">
            <path d="M71.5,106L92.718,118L92.718,142L71.5,154L50.282,142L50.282,118L71.5,106Z" style="fill:rgb(255,221,0);"/>
            <path d="M71.784,105.498L71.216,105.498L49.999,117.498L49.706,118L49.706,142L49.999,142.502L71.216,154.502L71.784,154.502L93.001,142.502L93.294,142L93.294,118L93.001,117.498L71.784,105.498ZM71.5,106L92.718,118L92.718,142L71.5,154L50.282,142L50.282,118L71.5,106Z"/>
        </g>
        <g transform="matrix(3.37458,0,0,3.37458,-75.6997,-258.92)">
            <path d="M71.5,106L92.718,118L92.718,142L71.5,154L50.282,142L50.282,118L71.5,106Z" style="fill:white;"/>
            <path d="M71.804,105.463L71.196,105.463L49.978,117.463L49.665,118L49.665,142L49.978,142.537L71.196,154.537L71.804,154.537L93.022,142.537L93.335,142L93.335,118L93.022,117.463L71.804,105.463ZM71.5,106L92.718,118L92.718,142L71.5,154L50.282,142L50.282,118L71.5,106Z" style="fill:rgb(255,221,0);"/>
        </g>
        <g transform="matrix(1,0,0,1,108,-73)">
            <g transform="matrix(1,0,0,1,-152,4)">
                <ellipse cx="208" cy="273.5" rx="46" ry="21.5" style="fill:rgb(255,221,0);"/>
                <path d="M208,249.917C192.302,249.917 178.39,253.548 169.76,259.049C163.46,263.065 159.917,268.143 159.917,273.5C159.917,278.857 163.46,283.935 169.76,287.951C178.39,293.452 192.302,297.083 208,297.083C223.698,297.083 237.61,293.452 246.24,287.951C252.54,283.935 256.083,278.857 256.083,273.5C256.083,268.143 252.54,263.065 246.24,259.049C237.61,253.548 223.698,249.917 208,249.917ZM208,252C233.388,252 254,261.634 254,273.5C254,285.366 233.388,295 208,295C182.612,295 162,285.366 162,273.5C162,261.634 182.612,252 208,252Z"/>
            </g>
            <path d="M79.378,258.983L78.161,296.342" style="fill:none;stroke:black;stroke-width:12.5px;"/>
            <g transform="matrix(0.999423,0.00547945,0.00547945,0.947945,1.29618,16.1863)">
                <path d="M35,257L31,295" style="fill:none;stroke:black;stroke-width:12.76px;"/>
            </g>
            <path d="M56,256L56,299" style="fill:none;stroke:black;stroke-width:12.5px;"/>
            <g transform="matrix(1,0,0,1.1811,-12,22.3307)">
                <ellipse cx="32" cy="213" rx="6" ry="5"/>
            </g>
            <path d="M45.845,255.52C38.617,255.52 30.149,247.011 25.954,241.923C19.639,234.265 9.607,219.045 18.402,209.211C22.022,205.163 28.297,202.719 33.379,201.327C48.024,197.317 53.669,204.814 59.679,216.919C61.957,221.508 64.605,226.842 64.871,232.056C65.24,239.281 59.766,243.546 55.248,248.84C53.676,250.682 49.751,256.576 49.751,253.814" style="fill:none;stroke:black;stroke-width:3.96px;"/>
            <path d="M92.149,231.55C92.149,231.55 92.149,231.55 92.149,231.55" style="fill:none;stroke:black;stroke-width:3.96px;"/>
            <path d="M54.187,251.952C60.554,251.952 67.569,247.959 73.561,246.075C81.217,243.667 91.697,242.628 98.05,237.203C105.076,231.203 103.323,212.052 94.444,208.095C91.646,206.847 88.193,207.159 85.222,207.159C67.594,207.159 60.859,217.74 56.305,232.843C53.771,241.247 51.354,247.308 51.354,256.1" style="fill:none;stroke:black;stroke-width:3.96px;"/>
        </g>
    </g>
</svg>
