<?xml version="1.0" encoding="UTF-8" standalone="no"?>
<!DOCTYPE svg PUBLIC "-//W3C//DTD SVG 1.1//EN" "http://www.w3.org/Graphics/SVG/1.1/DTD/svg11.dtd">
<svg width="100%" height="100%" viewBox="0 0 160 180" version="1.1" xmlns="http://www.w3.org/2000/svg" xmlns:xlink="http://www.w3.org/1999/xlink" xml:space="preserve" xmlns:serif="http://www.serif.com/" style="fill-rule:evenodd;clip-rule:evenodd;stroke-linecap:round;stroke-linejoin:round;stroke-miterlimit:1.5;">
    <g transform="matrix(1,0,0,1,-273.922,-84.8254)">
        <g transform="matrix(3.61562,0,0,3.61562,95.0659,-295.484)">
            <path d="M71.5,106L92.718,118L92.718,142L71.5,154L50.282,142L50.282,118L71.5,106Z" style="fill:white;"/>
            <path d="M71.784,105.498L71.216,105.498L49.999,117.498L49.706,118L49.706,142L49.999,142.502L71.216,154.502L71.784,154.502L93.001,142.502L93.294,142L93.294,118L93.001,117.498L71.784,105.498ZM71.5,106L92.718,118L92.718,142L71.5,154L50.282,142L50.282,118L71.5,106Z"/>
        </g>
        <g transform="matrix(3.61562,0,0,3.61562,95.0659,-295.484)">
            <path d="M71.5,106L92.718,118L92.718,142L71.5,154L50.282,142L50.282,118L71.5,106Z" style="fill:rgb(218,165,32);"/>
            <path d="M71.784,105.498L71.216,105.498L49.999,117.498L49.706,118L49.706,142L49.999,142.502L71.216,154.502L71.784,154.502L93.001,142.502L93.294,142L93.294,118L93.001,117.498L71.784,105.498ZM71.5,106L92.718,118L92.718,142L71.5,154L50.282,142L50.282,118L71.5,106Z"/>
        </g>
        <g transform="matrix(3.37458,0,0,3.37458,112.3,-264.149)">
            <path d="M71.5,106L92.718,118L92.718,142L71.5,154L50.282,142L50.282,118L71.5,106Z" style="fill:white;"/>
            <path d="M71.804,105.463L71.196,105.463L49.978,117.463L49.665,118L49.665,142L49.978,142.537L71.196,154.537L71.804,154.537L93.022,142.537L93.335,142L93.335,118L93.022,117.463L71.804,105.463ZM71.5,106L92.718,118L92.718,142L71.5,154L50.282,142L50.282,118L71.5,106Z" style="fill:white;"/>
        </g>
        <g transform="matrix(0.260059,0,0,0.260059,269.68,88.2381)">
            <g transform="matrix(12.7451,0,0,4.64015,-2844.82,-497.061)">
                <ellipse cx="248.5" cy="180" rx="8.5" ry="44" style="fill:rgb(218,165,32);stroke:black;stroke-width:0.84px;"/>
            </g>
            <g transform="matrix(5.29763,0,0,4.16667,-938.919,-424.333)">
                <path d="M231,191L248,191" style="fill:none;stroke:black;stroke-width:6.72px;stroke-linecap:square;"/>
            </g>
            <g transform="matrix(2.97135,-4.99451e-17,6.49532e-17,-4.3946,-725.703,1375.69)">
                <path d="M387,217L321,217L322.391,210L382.757,210L387,217Z" style="fill:white;"/>
                <path d="M387,217L321,217L322.391,210L382.757,210L387,217Z"/>
            </g>
            <g transform="matrix(2.27221,-1.35565e-16,1.76302e-16,-4.3946,-482.052,1433.37)">
                <path d="M387,217L321,217L328.572,210L379.428,210L387,217Z" style="fill:white;"/>
                <path d="M387,217L321,217L328.572,210L379.428,210L387,217Z"/>
            </g>
            <g transform="matrix(4.16667,0,0,4.16667,-669.655,-426.417)">
                <path d="M238.835,157.157C228.47,157.157 216.755,155.582 206.956,160.901C199.519,164.938 193.932,169.529 189.514,176.941C184.541,185.284 181.915,197.491 188.483,205.024C192.044,209.109 202.62,209.886 211.729,206.355C220.545,202.938 230.219,192.163 233.042,184.514C236.754,174.456 237.835,165.503 238.835,157.157Z" style="fill:white;stroke:black;stroke-width:1.92px;"/>
            </g>
            <g transform="matrix(-4.16667,0,0,4.16667,1324.32,-426.417)">
                <path d="M238.835,157.157C228.47,157.157 216.755,155.582 206.956,160.901C199.519,164.938 193.932,169.529 189.514,176.941C184.541,185.284 181.915,197.491 188.483,205.024C192.044,209.109 202.62,209.886 211.729,206.355C220.545,202.938 230.219,192.163 233.042,184.514C236.754,174.456 237.835,165.503 238.835,157.157Z" style="fill:white;stroke:black;stroke-width:1.92px;"/>
            </g>
            <g transform="matrix(4.64433,0.923004,0.0376312,4.60806,-796.36,-706.164)">
                <path d="M234,136L226,129" style="fill:rgb(218,165,32);stroke:black;stroke-width:1.56px;stroke-linejoin:bevel;"/>
            </g>
            <g transform="matrix(4.16667,0,0,4.16667,-677.667,-428.179)">
                <path d="M247,136L255,126" style="fill:none;stroke:black;stroke-width:1.92px;stroke-linejoin:bevel;"/>
            </g>
        </g>
    </g>
</svg>
