<?xml version="1.0" encoding="UTF-8" standalone="no"?>
<!DOCTYPE svg PUBLIC "-//W3C//DTD SVG 1.1//EN" "http://www.w3.org/Graphics/SVG/1.1/DTD/svg11.dtd">
<svg width="100%" height="100%" viewBox="0 0 160 180" version="1.1" xmlns="http://www.w3.org/2000/svg" xmlns:xlink="http://www.w3.org/1999/xlink" xml:space="preserve" xmlns:serif="http://www.serif.com/" style="fill-rule:evenodd;clip-rule:evenodd;stroke-linejoin:round;stroke-miterlimit:2;">
    <g transform="matrix(1,0,0,1,-22.9216,-288.825)">
        <g transform="matrix(3.61562,0,0,3.61562,-155.934,-91.484)">
            <path d="M71.5,106L92.718,118L92.718,142L71.5,154L50.282,142L50.282,118L71.5,106Z" style="fill:white;"/>
            <path d="M71.784,105.498L71.216,105.498L49.999,117.498L49.706,118L49.706,142L49.999,142.502L71.216,154.502L71.784,154.502L93.001,142.502L93.294,142L93.294,118L93.001,117.498L71.784,105.498ZM71.5,106L92.718,118L92.718,142L71.5,154L50.282,142L50.282,118L71.5,106Z"/>
        </g>
        <g transform="matrix(3.61562,0,0,3.61562,-155.934,-91.484)">
            <path d="M71.5,106L92.718,118L92.718,142L71.5,154L50.282,142L50.282,118L71.5,106Z" style="fill:rgb(218,165,32);"/>
            <path d="M71.784,105.498L71.216,105.498L49.999,117.498L49.706,118L49.706,142L49.999,142.502L71.216,154.502L71.784,154.502L93.001,142.502L93.294,142L93.294,118L93.001,117.498L71.784,105.498ZM71.5,106L92.718,118L92.718,142L71.5,154L50.282,142L50.282,118L71.5,106Z"/>
        </g>
        <g transform="matrix(3.37458,0,0,3.37458,-138.7,-60.1486)">
            <path d="M71.5,106L92.718,118L92.718,142L71.5,154L50.282,142L50.282,118L71.5,106Z" style="fill:white;"/>
            <path d="M71.804,105.463L71.196,105.463L49.978,117.463L49.665,118L49.665,142L49.978,142.537L71.196,154.537L71.804,154.537L93.022,142.537L93.335,142L93.335,118L93.022,117.463L71.804,105.463ZM71.5,106L92.718,118L92.718,142L71.5,154L50.282,142L50.282,118L71.5,106Z" style="fill:white;"/>
        </g>
        <g transform="matrix(0.81247,0,0,0.81247,-350.622,241.404)">
            <path d="M532.297,192.736C529.38,196.797 526.863,200.637 525.117,202.866C523.054,205.498 520.442,208.93 520.273,212.505C520.034,217.589 521.622,220.504 525.887,224.126C527.772,225.728 533.853,227.025 535.985,226.137C540.787,224.137 544.47,217.126 542.895,211.465C541.816,207.588 541,206.754 538.541,203.607C536.921,201.536 532.297,195.525 532.297,192.736Z" style="fill:rgb(218,165,32);"/>
            <path d="M532.297,192.736C529.38,196.797 526.863,200.637 525.117,202.866C523.054,205.498 520.442,208.93 520.273,212.505C520.034,217.589 521.622,220.504 525.887,224.126C527.772,225.728 533.853,227.025 535.985,226.137C540.787,224.137 544.47,217.126 542.895,211.465C541.816,207.588 541,206.754 538.541,203.607C536.921,201.536 532.297,195.525 532.297,192.736ZM531.628,198.141C533.201,200.885 535.464,203.835 536.52,205.186C538.707,207.984 539.466,208.706 540.425,212.152C541.049,214.396 540.577,216.9 539.528,219.048C538.49,221.171 536.88,222.986 534.999,223.77C534.438,224.004 533.459,223.882 532.408,223.735C530.537,223.472 528.432,222.924 527.547,222.172C524.029,219.184 522.638,216.819 522.835,212.625C522.979,209.563 525.368,206.702 527.135,204.447C528.319,202.937 529.855,200.693 531.628,198.141Z"/>
        </g>
        <g transform="matrix(0.81247,0,0,0.81247,-348.997,241.404)">
            <path d="M555.123,210.938C553.031,214.672 547.213,220.228 546.764,224.391C545.45,236.562 562,237.338 563.068,226.103C563.741,219.017 555.123,217.044 555.123,210.938Z" style="fill:rgb(218,165,32);"/>
            <path d="M555.123,210.938C553.031,214.672 547.213,220.228 546.764,224.391C545.45,236.562 562,237.338 563.068,226.103C563.741,219.017 555.123,217.044 555.123,210.938ZM554.397,216.394C554.938,217.172 555.568,217.91 556.247,218.631C557.168,219.609 558.174,220.559 559.019,221.612C559.95,222.773 560.685,224.074 560.515,225.861C560.067,230.578 555.762,232.337 552.553,231.096C550.419,230.271 548.946,228.065 549.313,224.667C549.455,223.349 550.367,221.897 551.408,220.39C552.337,219.045 553.397,217.689 554.397,216.394L554.397,216.394Z"/>
        </g>
        <g transform="matrix(0.56727,-0.142644,0.279854,1.11293,-232.045,268.022)">
            <path d="M608,149C608,146.24 603.605,144 598.19,144L536.81,144C531.395,144 527,146.24 527,149C527,151.76 531.395,154 536.81,154L598.19,154C603.605,154 608,151.76 608,149Z" style="fill:rgb(255,253,249);"/>
            <path d="M611.562,149C611.562,145.238 605.57,142.185 598.19,142.185L536.81,142.185C529.43,142.185 523.438,145.238 523.438,149C523.438,152.762 529.43,155.815 536.81,155.815L598.19,155.815C605.57,155.815 611.562,152.762 611.562,149ZM608,149C608,146.24 603.605,144 598.19,144L536.81,144C531.395,144 527,146.24 527,149C527,151.76 531.395,154 536.81,154L598.19,154C603.605,154 608,151.76 608,149Z"/>
        </g>
        <g transform="matrix(1,0,0,1,0,76.7717)">
            <g transform="matrix(-0.118086,-0.572886,1.0427,-0.214927,-1.86149,644.721)">
                <path d="M608,149C608,146.24 603.922,144 598.9,144L536.1,144C531.078,144 527,146.24 527,149C527,151.76 531.078,154 536.1,154L598.9,154C603.922,154 608,151.76 608,149Z" style="fill:rgb(218,165,32);"/>
                <path d="M611.562,149C611.562,145.16 605.888,142.043 598.9,142.043C598.9,142.043 536.1,142.043 536.1,142.043C529.112,142.043 523.438,145.16 523.438,149C523.438,152.84 529.112,155.957 536.1,155.957L598.9,155.957C605.888,155.957 611.562,152.84 611.562,149ZM608,149C608,146.24 603.922,144 598.9,144L536.1,144C531.078,144 527,146.24 527,149C527,151.76 531.078,154 536.1,154L598.9,154C603.922,154 608,151.76 608,149Z"/>
            </g>
            <g transform="matrix(-0.096941,-0.451749,1.02203,-0.219318,-23.0627,579.091)">
                <path d="M608,149C608,146.24 602.931,144 596.688,144L538.312,144C532.069,144 527,146.24 527,149C527,151.76 532.069,154 538.312,154L596.688,154C602.931,154 608,151.76 608,149Z" style="fill:rgb(218,165,32);"/>
                <path d="M612.509,149C612.509,145.14 605.42,142.007 596.688,142.007C596.688,142.007 538.312,142.007 538.312,142.007C529.58,142.007 522.491,145.14 522.491,149C522.491,152.86 529.58,155.993 538.312,155.993L596.688,155.993C605.42,155.993 612.509,152.86 612.509,149L612.509,149ZM608,149C608,146.24 602.931,144 596.688,144L538.312,144C532.069,144 527,146.24 527,149C527,151.76 532.069,154 538.312,154L596.688,154C602.931,154 608,151.76 608,149Z"/>
            </g>
            <g transform="matrix(-0.0932757,-0.45252,1.12395,-0.231674,-4.89182,572.97)">
                <path d="M608,149C608,146.24 602.435,144 595.581,144L539.419,144C532.565,144 527,146.24 527,149C527,151.76 532.565,154 539.419,154L595.581,154C602.435,154 608,151.76 608,149Z" style="fill:rgb(218,165,32);"/>
                <path d="M612.509,149C612.509,145.238 604.924,142.185 595.581,142.185C595.581,142.185 539.419,142.185 539.419,142.185C530.076,142.185 522.491,145.238 522.491,149C522.491,152.762 530.076,155.815 539.419,155.815C539.419,155.815 595.581,155.815 595.581,155.815C604.924,155.815 612.509,152.762 612.509,149L612.509,149ZM608,149C608,146.24 602.435,144 595.581,144L539.419,144C532.565,144 527,146.24 527,149C527,151.76 532.565,154 539.419,154L595.581,154C602.435,154 608,151.76 608,149Z"/>
            </g>
            <g transform="matrix(-0.120154,-0.582916,0.961453,-0.19818,22.6621,644.346)">
                <path d="M608,149C608,146.24 604.305,144 599.753,144L535.247,144C530.695,144 527,146.24 527,149C527,151.76 530.695,154 535.247,154L599.753,154C604.305,154 608,151.76 608,149Z" style="fill:rgb(218,165,32);"/>
                <path d="M611.5,149C611.5,145.069 606.237,141.878 599.753,141.878L535.247,141.878C528.763,141.878 523.5,145.069 523.5,149C523.5,152.931 528.763,156.122 535.247,156.122C535.247,156.122 599.753,156.122 599.753,156.122C606.237,156.122 611.5,152.931 611.5,149ZM608,149C608,146.24 604.305,144 599.753,144L535.247,144C530.695,144 527,146.24 527,149C527,151.76 530.695,154 535.247,154L599.753,154C604.305,154 608,151.76 608,149Z"/>
            </g>
        </g>
    </g>
</svg>
